#tb 0: 1/25
0,          0,          0,        1,   405504, 0x049ab58e
0,          1,          1,        1,   405504, 0x4f6226cb
0,          2,          2,        1,   405504, 0xaa5fcb44
0,          3,          3,        1,   405504, 0xbfc09965
0,          4,          4,        1,   405504, 0xa30acb90
